<svg width="82" height="86" viewBox="0 0 82 86" fill="none" xmlns="http://www.w3.org/2000/svg">
<path d="M7.20166 81.6224V46.9037C7.20166 45.9221 7.66649 44.9984 8.45485 44.4135L43.7239 18.2461C44.8587 17.4042 46.4192 17.4359 47.5189 18.3233L79.8467 44.4125C80.5761 45.0011 81.0001 45.8881 81.0001 46.8255V81.6224C81.0001 83.3349 79.6118 84.7231 77.8993 84.7231H10.3024C8.58992 84.7231 7.20166 83.3349 7.20166 81.6224Z" fill="url(#paint0_linear_1_5519)" stroke="white" stroke-width="0.620155"/>
<path d="M65.6325 16.7302L46.3245 4.19151C46.0682 4.02528 45.7817 3.91116 45.4813 3.85569C45.1809 3.80022 44.8725 3.80448 44.5737 3.86823L17.2766 9.67042C16.07 9.92689 15.0147 10.6522 14.3428 11.6867C13.671 12.7213 13.4376 13.9804 13.6941 15.187L24.3314 65.2317C24.5879 66.4383 25.3132 67.4936 26.3477 68.1655C27.3823 68.8373 28.6414 69.0707 29.848 68.8142L70.7937 60.1109C72.0003 59.8545 73.0556 59.1292 73.7275 58.0946C74.3993 57.0601 74.6327 55.801 74.3762 54.5944L66.6399 18.1982C66.5767 17.8993 66.4551 17.6159 66.2823 17.364C66.1094 17.1121 65.8886 16.8968 65.6325 16.7302Z" fill="url(#paint1_linear_1_5519)" stroke="white" stroke-width="0.620155"/>
<path d="M44.1857 64.1336L9.00378 46.2589C8.17865 45.8396 7.20166 46.4391 7.20166 47.3646V81.6223C7.20166 83.3348 8.58993 84.7231 10.3024 84.7231H77.8993C79.6118 84.7231 81.0001 83.3348 81.0001 81.6223V47.4458C81.0001 46.5013 79.9865 45.9034 79.1599 46.3602L47.09 64.083C46.1902 64.5803 45.1023 64.5993 44.1857 64.1336Z" fill="#F0F6FD"/>
<path d="M74.803 13.7155C74.8047 13.9337 74.7384 14.147 74.6133 14.3257C74.4882 14.5044 74.3105 14.6397 74.1049 14.7128L69.887 16.2466L68.3538 20.4638C68.2783 20.6674 68.1422 20.843 67.9639 20.967C67.7857 21.0909 67.5737 21.1574 67.3565 21.1574C67.1394 21.1574 66.9274 21.0909 66.7492 20.967C66.5709 20.843 66.4348 20.6674 66.3592 20.4638L64.8254 16.242L60.6082 14.7128C60.4046 14.6373 60.229 14.5012 60.105 14.3229C59.981 14.1446 59.9146 13.9327 59.9146 13.7155C59.9146 13.4984 59.981 13.2864 60.105 13.1082C60.229 12.9299 60.4046 12.7938 60.6082 12.7183L64.8301 11.1844L66.3592 6.96727C66.4348 6.76369 66.5709 6.58811 66.7492 6.46413C66.9274 6.34014 67.1394 6.27368 67.3565 6.27368C67.5737 6.27368 67.7857 6.34014 67.9639 6.46413C68.1422 6.58811 68.2783 6.76369 68.3538 6.96727L69.8877 11.1891L74.1049 12.7183C74.3105 12.7913 74.4882 12.9267 74.6133 13.1054C74.7384 13.2841 74.8047 13.4974 74.803 13.7155Z" fill="#1D4374" stroke="#F5F5F5" stroke-width="0.620155"/>
<path d="M10.9255 65.1883C10.9266 65.3337 10.8824 65.4759 10.799 65.5951C10.7156 65.7142 10.5971 65.8044 10.4601 65.8531L7.6482 66.8757L6.62609 69.6871C6.57572 69.8229 6.48501 69.9399 6.36616 70.0226C6.24731 70.1052 6.10601 70.1495 5.96124 70.1495C5.81647 70.1495 5.67517 70.1052 5.55632 70.0226C5.43747 69.9399 5.34676 69.8229 5.29639 69.6871L4.27384 66.8726L1.46239 65.8531C1.32667 65.8028 1.20962 65.7121 1.12696 65.5932C1.04431 65.4744 1 65.3331 1 65.1883C1 65.0435 1.04431 64.9022 1.12696 64.7834C1.20962 64.6645 1.32667 64.5738 1.46239 64.5234L4.27694 63.5009L5.29639 60.6894C5.34676 60.5537 5.43747 60.4367 5.55632 60.354C5.67517 60.2714 5.81647 60.2271 5.96124 60.2271C6.10601 60.2271 6.24731 60.2714 6.36616 60.354C6.48501 60.4367 6.57572 60.5537 6.62609 60.6894L7.64864 63.504L10.4601 64.5234C10.5971 64.5722 10.7156 64.6624 10.799 64.7815C10.8824 64.9007 10.9266 65.0429 10.9255 65.1883Z" fill="#DCEAFD" stroke="white" stroke-width="0.620155"/>
<g filter="url(#filter0_d_1_5519)">
<path d="M68.0944 71.1545C68.2027 71.1545 68.2759 71.2292 68.314 71.3785C68.314 71.4282 68.2671 71.5629 68.1734 71.7824C68.1178 71.8819 68.0754 72.0005 68.0461 72.1381H68.0637C68.0227 72.2522 67.9964 72.6313 67.9846 73.2753C67.9934 73.325 67.9978 73.3777 67.9978 73.4333L67.9846 73.5563C67.9846 73.568 67.9978 73.6148 68.0242 73.6968C68.0007 73.6968 67.9832 73.8153 67.9715 74.0524H68.0066C67.9832 74.0993 67.9715 74.1241 67.9715 74.1271L67.9846 74.2676C67.9671 74.3408 67.9583 74.3876 67.9583 74.4081H67.9759L67.8924 74.9964L67.8793 74.992C67.9056 74.9774 67.9451 74.9701 67.9978 74.9701C67.9978 74.9935 68.0081 75.0067 68.0286 75.0096C68.0695 74.9862 68.09 74.9716 68.09 74.9657L68.0242 74.9789C68.0242 74.9115 68.0651 74.8618 68.1471 74.8296C68.1471 74.8208 68.1764 74.7945 68.2349 74.7506H68.2788C68.311 74.7506 68.3271 74.7476 68.3271 74.7418C68.3154 74.7476 68.3022 74.7506 68.2876 74.7506L68.2788 74.6979L68.5028 74.5705H68.5247C68.5511 74.5705 68.5686 74.5735 68.5774 74.5793L68.652 74.5442H68.6916V74.553C68.6916 74.5588 68.674 74.5618 68.6389 74.5618V74.4608C68.6769 74.4608 68.7033 74.4652 68.7179 74.4739L68.7882 74.4564C68.8086 74.471 68.8086 74.4783 68.7882 74.4783C68.7882 74.4491 68.7852 74.4344 68.7794 74.4344L68.7882 74.452V74.3686C68.8584 74.3686 68.9213 74.3451 68.977 74.2983C69.0033 74.2983 69.0618 74.2573 69.1526 74.1754C69.1877 74.1754 69.258 74.1476 69.3633 74.0919H69.4072C69.4248 74.1007 69.4292 74.1051 69.4204 74.1051C69.4907 74.0144 69.5624 73.969 69.6356 73.969C69.6502 73.9339 69.6722 73.9163 69.7014 73.9163L69.7322 73.9207C69.7322 73.9207 69.7585 73.9061 69.8112 73.8768H69.8419C69.88 73.8827 69.899 73.9119 69.899 73.9646C69.8375 73.9822 69.7848 74.0275 69.7409 74.1007C69.498 74.2471 69.2741 74.3964 69.0692 74.5486C69.0487 74.5486 68.996 74.5779 68.9111 74.6364L68.6257 74.8032C68.4062 74.9759 68.1544 75.1574 67.8705 75.3477C67.8266 75.377 67.8046 75.396 67.8046 75.4048C67.8163 75.4048 67.8222 75.4326 67.8222 75.4882C67.7988 75.4882 67.7841 75.4941 67.7783 75.5058V75.5233C67.7783 75.538 67.7841 75.5541 67.7958 75.5716C67.6875 76.0166 67.5617 76.4351 67.4182 76.8274C67.3978 76.8566 67.3392 77.0001 67.2426 77.2577C67.026 77.6938 66.887 77.9587 66.8255 78.0524C66.7874 78.0729 66.7684 78.108 66.7684 78.1578C66.6191 78.4007 66.5079 78.5632 66.4347 78.6451C66.3645 78.8032 66.1435 79.0447 65.7717 79.3696C65.7717 79.3872 65.7307 79.4164 65.6488 79.4574C65.599 79.5277 65.4161 79.636 65.0999 79.7823H65.0429L65.0604 79.7911C65.0604 79.7911 64.9097 79.797 64.6082 79.8087C64.2891 79.7209 64.1296 79.5877 64.1296 79.4091C64.1471 79.374 64.1559 79.3564 64.1559 79.3564C64.1501 79.3564 64.1354 79.3345 64.112 79.2906V79.2203C64.1413 79.2203 64.1559 79.2233 64.1559 79.2291V79.2335H64.1296V79.172C64.1296 79.1398 64.1267 79.1237 64.1208 79.1237C64.1267 79.1354 64.1296 79.1325 64.1296 79.115C64.1676 78.9832 64.2086 78.8837 64.2525 78.8164V78.7154H64.3096L64.3359 78.7286L64.3272 78.7505L64.3052 78.7154C64.3052 78.651 64.3872 78.5002 64.5511 78.2631C64.5511 78.2192 64.6038 78.1548 64.7092 78.07C64.8116 77.8709 64.9009 77.7714 64.977 77.7714V77.7055C65.0063 77.6792 65.1029 77.5636 65.2668 77.3587C65.2814 77.3587 65.3004 77.3572 65.3239 77.3543L65.3107 77.3016C65.3926 77.2401 65.4541 77.1728 65.4951 77.0996C65.5214 77.0996 65.5653 77.0542 65.6268 76.9635C65.6971 76.8991 65.7542 76.8669 65.7981 76.8669C65.7981 76.8757 65.779 76.8801 65.741 76.8801C65.741 76.8303 65.7849 76.7996 65.8727 76.7879L65.9298 76.801H65.9034V76.8581C65.8976 76.8581 65.8844 76.8391 65.8639 76.801C65.8639 76.7308 66.0147 76.5551 66.3162 76.2741L66.9353 75.7253L66.9572 75.7385C67.0245 75.6536 67.0772 75.6111 67.1153 75.6111C67.1358 75.5555 67.1665 75.5233 67.2075 75.5145H67.2733C67.2733 75.5409 67.2748 75.5541 67.2777 75.5541C67.2865 75.5541 67.3187 75.5277 67.3743 75.475C67.4065 75.475 67.4226 75.4589 67.4226 75.4267V75.3257C67.449 75.3257 67.4943 75.2818 67.5587 75.194V75.1062C67.5851 75.1062 67.5983 75.115 67.5983 75.1326C67.5807 75.074 67.5719 75.033 67.5719 75.0096L67.5807 74.9877C67.5748 74.9759 67.5719 74.9555 67.5719 74.9262C67.607 74.9086 67.6202 74.8998 67.6114 74.8998V74.9174L67.6246 74.8208C67.6158 74.8208 67.6114 74.7974 67.6114 74.7506L67.6422 74.7374C67.6334 74.6437 67.629 74.5735 67.629 74.5266V74.4652L67.6553 74.373C67.6524 74.37 67.6392 74.3686 67.6158 74.3686C67.6422 74.2866 67.6597 74.2178 67.6685 74.1622C67.6597 74.1476 67.6553 74.1198 67.6553 74.0788C67.6758 74.0788 67.689 74.048 67.6949 73.9866C67.6773 73.9866 67.6685 73.9646 67.6685 73.9207L67.6817 73.8548C67.6788 73.8431 67.6627 73.8373 67.6334 73.8373C67.6568 73.7904 67.6685 73.767 67.6685 73.767L67.6553 73.7407C67.6553 73.6763 67.6773 73.6441 67.7212 73.6441V73.6836C67.6861 73.6836 67.6685 73.6192 67.6685 73.4904C67.689 73.4904 67.7007 73.4875 67.7036 73.4816C67.6919 73.4524 67.6758 73.3777 67.6553 73.2577C67.6553 73.2255 67.6714 73.1743 67.7036 73.104C67.6802 73.063 67.6685 73.0265 67.6685 72.9943C67.6685 72.9533 67.6729 72.9167 67.6817 72.8845L67.6685 72.8011L67.6773 72.7133C67.6627 72.7133 67.6553 72.7001 67.6553 72.6737H67.6949C67.6451 72.7264 67.4973 72.9562 67.2514 73.3631C67.1665 73.4128 67.1241 73.4509 67.1241 73.4772L67.146 73.5168C66.8943 73.8153 66.6674 74.1066 66.4655 74.3905C66.4479 74.3964 66.3191 74.5398 66.0791 74.8208C66.0644 74.8208 65.9459 74.9437 65.7234 75.1896C65.7059 75.1896 65.6444 75.2409 65.539 75.3433C65.1555 75.6858 64.8467 75.857 64.6126 75.857C64.4018 75.857 64.2642 75.7882 64.1998 75.6507C64.1237 75.5453 64.0857 75.4619 64.0857 75.4004V75.3784L64.112 75.3345V75.3653C64.0857 75.3653 64.0725 75.3418 64.0725 75.295L64.0813 75.2731C64.0666 75.2204 64.0593 75.1779 64.0593 75.1457L64.0813 75.1369L64.0725 75.0843C64.0784 75.0433 64.0842 75.0228 64.0901 75.0228L64.0725 74.9437C64.0959 74.894 64.1135 74.8252 64.1252 74.7374C64.1164 74.7374 64.112 74.714 64.112 74.6671L64.1515 74.6452C64.1457 74.6101 64.1428 74.5793 64.1428 74.553C64.1428 74.5208 64.1632 74.4739 64.2042 74.4125C64.1984 74.4037 64.1954 74.3832 64.1954 74.351L64.2174 74.3422L64.2086 74.3115C64.2086 74.2793 64.2276 74.231 64.2657 74.1666L64.2481 74.1095C64.2891 74.048 64.3345 73.9339 64.3842 73.767C64.4106 73.767 64.4413 73.6982 64.4764 73.5607C64.5057 73.5607 64.5379 73.4787 64.573 73.3148C64.5877 73.3148 64.6155 73.2504 64.6565 73.1216C64.674 73.1216 64.6887 73.1128 64.7004 73.0952V73.0996L64.6784 73.0513L64.8014 72.9679V73.0426H64.7575V73.0601C64.7399 73.0396 64.7311 73.0162 64.7311 72.9899C64.7633 72.8786 64.7984 72.823 64.8365 72.823C64.8453 72.8406 64.835 72.8494 64.8058 72.8494C64.8497 72.7498 64.8833 72.7001 64.9067 72.7001C64.9067 72.7089 64.9009 72.703 64.8892 72.6825C64.9331 72.5567 65.0077 72.4235 65.1131 72.283C65.1131 72.2478 65.1877 72.1015 65.337 71.8439C65.4073 71.7414 65.4673 71.5936 65.5171 71.4004C65.5375 71.4004 65.558 71.396 65.5785 71.3873C65.7161 71.4165 65.7849 71.478 65.7849 71.5717C65.7849 71.6185 65.6458 71.8893 65.3678 72.3839C65.2419 72.5859 65.0736 72.9401 64.8628 73.4465C64.6462 73.8709 64.4882 74.392 64.3886 75.0096C64.3886 75.0096 64.393 75.0199 64.4018 75.0403L64.3886 75.1326C64.3886 75.115 64.4003 75.1062 64.4238 75.1062C64.4003 75.153 64.3886 75.1779 64.3886 75.1808C64.4033 75.4297 64.456 75.5541 64.5467 75.5541H64.6565C64.7853 75.5541 65.0238 75.4062 65.3722 75.1106C65.3722 75.0989 65.4366 75.0433 65.5653 74.9437C65.5712 74.9115 65.6107 74.8735 65.6839 74.8296C65.6839 74.8062 65.8244 74.651 66.1054 74.3642C66.2488 74.1768 66.3806 74.0232 66.5006 73.9031C66.5767 73.7714 66.7289 73.5738 66.9572 73.3104C66.9572 73.2811 67.0275 73.1743 67.168 72.9899C67.2236 72.8757 67.3085 72.7762 67.4226 72.6913C67.4226 72.5888 67.4695 72.4923 67.5631 72.4015C67.6041 72.4279 67.6202 72.441 67.6114 72.441V72.4366V72.4674C67.5705 72.4674 67.5426 72.4396 67.528 72.3839C67.6861 72.1908 67.7651 71.9917 67.7651 71.7868C67.809 71.6112 67.8456 71.4399 67.8749 71.2731C67.9159 71.2116 67.989 71.1721 68.0944 71.1545ZM67.0977 73.2884V73.2314H67.0538V73.2884H67.0977ZM66.9748 73.4685V73.4509H66.9528C66.947 73.4509 66.944 73.4538 66.944 73.4597C66.944 73.4655 66.9543 73.4685 66.9748 73.4685ZM66.7816 73.6792V73.6704H66.7596C66.783 73.6529 66.7948 73.6441 66.7948 73.6441C66.7948 73.6704 66.7962 73.6836 66.7991 73.6836H66.7772C66.7801 73.6836 66.7816 73.6821 66.7816 73.6792ZM66.7289 73.7539H66.6982V73.7934H66.7245C66.7274 73.7934 66.7289 73.7802 66.7289 73.7539ZM66.6586 73.8768V73.8505C66.6586 73.8475 66.6557 73.8461 66.6499 73.8461H66.6279V73.868C66.6279 73.8739 66.6308 73.8768 66.6367 73.8768H66.6586ZM66.5225 74.0524H66.4918V74.0832H66.5181C66.5211 74.0832 66.5225 74.0729 66.5225 74.0524ZM68.4764 74.7506V74.7066H68.4325V74.7506H68.4764ZM68.314 74.8384V74.8164H68.3052C68.2993 74.8164 68.2964 74.8267 68.2964 74.8472H68.3008C68.3096 74.8472 68.314 74.8442 68.314 74.8384ZM67.4358 75.3828V75.4882C67.3948 75.4882 67.3641 75.5116 67.3436 75.5585C67.3319 75.5585 67.326 75.5702 67.326 75.5936C67.2792 75.5702 67.2426 75.5585 67.2163 75.5585V75.5102C67.2163 75.4633 67.2894 75.4209 67.4358 75.3828ZM67.5763 75.6243V75.5848H67.5192V75.6243H67.5763ZM64.415 79.1852C64.4296 79.4077 64.4808 79.5189 64.5687 79.5189C64.5687 79.5423 64.6477 79.5613 64.8058 79.576C64.9053 79.576 65.0911 79.5028 65.3634 79.3564L65.3985 79.3608C65.3985 79.3199 65.4234 79.2994 65.4731 79.2994C65.4761 79.2994 65.4907 79.2759 65.5171 79.2291C65.5668 79.2057 65.6312 79.1501 65.7102 79.0623C65.7395 79.0769 65.7468 79.0842 65.7322 79.0842L65.719 79.014C65.7629 79.014 65.8303 78.9701 65.921 78.8822V78.9613H65.9034V78.9744L65.8683 78.9261C65.9093 78.8647 65.9766 78.8105 66.0703 78.7637L66.1098 78.7198V78.7417H66.0835V78.6451C66.1069 78.6451 66.1654 78.5676 66.2591 78.4124H66.3162L66.303 78.408V78.4607C66.2913 78.4461 66.2854 78.4197 66.2854 78.3817L66.382 78.2675L66.4084 78.2807C66.4084 78.2866 66.404 78.2895 66.3952 78.2895L66.4084 78.3071V78.1841C66.4435 78.1578 66.4801 78.1022 66.5181 78.0173C66.5328 78.0173 66.5357 78.026 66.5269 78.0436H66.5094C66.6001 77.8709 66.6762 77.7421 66.7377 77.6572C66.7377 77.5987 66.7713 77.5357 66.8387 77.4684L66.8343 77.4596C66.8343 77.407 66.9118 77.2416 67.067 76.9635H67.1241L67.0977 77.0206C67.0597 77.0206 67.0406 76.9972 67.0406 76.9503C67.1489 76.6986 67.2207 76.5025 67.2558 76.362C67.3612 75.9785 67.4299 75.759 67.4621 75.7033C67.4621 75.7238 67.449 75.7341 67.4226 75.7341C67.4578 75.6755 67.4753 75.6448 67.4753 75.6419H67.4841C67.0304 76.0019 66.4289 76.5625 65.6795 77.3235C64.8892 78.228 64.4808 78.8149 64.4545 79.0842C64.4428 79.0842 64.4296 79.1179 64.415 79.1852ZM66.1098 76.6386V76.5947H66.0922C66.0864 76.5947 66.0835 76.5976 66.0835 76.6034V76.6474C66.0952 76.6415 66.1039 76.6386 66.1098 76.6386ZM65.1263 77.7319V77.7011H65.0999V77.7319H65.1263ZM64.8672 78.0436V77.9909H64.8233V78.0436H64.8672ZM65.0604 79.7253V79.6857H65.0165V79.7253H65.0604Z" fill="#1475F4"/>
<path d="M70.1932 73.8461L70.2503 73.8329C70.6045 73.8036 70.7991 73.8446 70.8342 73.9558C70.8518 73.95 70.903 74.0363 70.9879 74.2149C71.0055 74.2705 70.9996 74.3876 70.9703 74.5661L70.966 74.553H70.9616C71.0318 74.5383 71.2879 74.3612 71.7299 74.0217C71.7856 73.9866 71.8324 73.9646 71.8705 73.9558C71.9144 74.0963 71.6802 74.373 71.1679 74.7857C71.0216 74.8794 70.8972 74.9379 70.7947 74.9613C70.581 75.1808 70.4171 75.3287 70.303 75.4048C70.2708 75.4136 70.2327 75.4282 70.1888 75.4487C69.9341 75.5102 69.7161 75.4326 69.5346 75.216C69.4965 75.1516 69.4599 75.0799 69.4248 75.0008C69.3077 74.632 69.3897 74.3378 69.6707 74.1183C69.7585 74.01 69.9005 73.9324 70.0966 73.8856C70.0937 73.8768 70.1259 73.8636 70.1932 73.8461ZM70.1756 74.43C70.2722 74.6466 70.401 74.7345 70.562 74.6935L70.6059 74.6847C70.6967 74.5618 70.7391 74.4417 70.7332 74.3247C70.6542 74.1256 70.5605 74.0393 70.4522 74.0656C70.4464 74.048 70.4288 74.0436 70.3996 74.0524C70.1859 74.1051 70.1112 74.231 70.1756 74.43ZM69.7058 74.8428L69.719 74.8823C69.7746 75.0638 69.839 75.1618 69.9122 75.1765C69.9649 75.1911 70.0307 75.1882 70.1098 75.1677C70.2708 75.0711 70.3571 75.0052 70.3688 74.9701V74.9745C70.0937 74.8486 69.9254 74.692 69.8639 74.5047C69.8551 74.5076 69.8463 74.493 69.8375 74.4608C69.8346 74.3964 69.8288 74.3466 69.82 74.3115H69.8156C69.6868 74.493 69.6502 74.6701 69.7058 74.8428Z" fill="#1475F4"/>
<path d="M71.9451 73.9207C71.9949 73.9207 72.0534 73.9441 72.1207 73.991C72.1207 74.0319 72.0153 74.2193 71.8046 74.553C71.7548 74.6525 71.7197 74.8164 71.6992 75.0447C71.7226 75.0974 71.746 75.1267 71.7695 75.1326C71.8865 75.1326 72.1207 74.9862 72.472 74.6935C72.6535 74.5149 72.8642 74.2807 73.1042 73.991C73.1862 73.9675 73.2565 73.9558 73.315 73.9558H73.3677C73.3853 73.9558 73.4087 73.9851 73.4379 74.0436C73.4379 74.0671 73.3677 74.1607 73.2272 74.3247C73.1804 74.392 73.1218 74.5325 73.0516 74.7462V74.9042C73.0516 74.9189 73.0808 74.9481 73.1394 74.992C73.3121 74.992 73.6604 74.7227 74.1844 74.1842C74.278 74.0554 74.3659 73.9734 74.4478 73.9383H74.4654C74.4888 73.9412 74.5005 73.9529 74.5005 73.9734C74.4127 74.2456 74.1756 74.591 73.7892 75.0096C73.5667 75.2087 73.3501 75.3082 73.1394 75.3082H73.1218C72.914 75.3082 72.7559 75.1618 72.6476 74.8691C72.2788 75.2321 72.0388 75.4136 71.9275 75.4136C71.8456 75.437 71.7753 75.4487 71.7168 75.4487C71.5236 75.4487 71.4006 75.3199 71.348 75.0623V75.0447C71.348 74.6964 71.506 74.3334 71.8222 73.9558C71.8456 73.9558 71.8865 73.9441 71.9451 73.9207Z" fill="#1475F4"/>
</g>
<g filter="url(#filter1_di_1_5519)">
<path fill-rule="evenodd" clip-rule="evenodd" d="M23.12 73.4434C22.8545 72.2119 21.8839 71.2459 20.6524 70.9804C20.016 70.843 19.3522 70.7698 18.6746 70.7698C17.997 70.7698 17.3332 70.843 16.6968 70.9804C15.4653 71.2459 14.4993 72.2165 14.2338 73.4434C14.0964 74.0798 14.0232 74.7436 14.0232 75.4212C14.0232 76.0987 14.0964 76.7626 14.2338 77.3989C14.4993 78.6305 15.4699 79.5965 16.6968 79.862C17.3332 79.9993 17.997 80.0726 18.6746 80.0726C19.3522 80.0726 20.016 79.9993 20.6524 79.862C21.8839 79.5965 22.8499 78.6259 23.1154 77.3989C23.2528 76.7626 23.326 76.0987 23.326 75.4258C23.3306 74.739 23.2573 74.0798 23.12 73.4434ZM17.6903 73.3839C17.6903 72.8483 18.1298 72.4088 18.6654 72.4088C19.2011 72.4088 19.6406 72.8483 19.6406 73.3839V73.8005C19.6406 74.3362 19.2011 74.7757 18.6654 74.7757C18.1298 74.7757 17.6903 74.3362 17.6903 73.8005V73.3839ZM20.5791 77.6736C20.0755 78.136 19.4025 78.4153 18.6654 78.4153C17.9284 78.4153 17.2599 78.136 16.7518 77.6736C15.9369 76.932 16.4725 75.5723 17.5758 75.5723H19.7596C20.8584 75.5723 21.394 76.932 20.5791 77.6736Z" fill="#1475F4"/>
</g>
<defs>
<filter id="filter0_d_1_5519" x="64.0593" y="71.1545" width="10.4412" height="8.96413" filterUnits="userSpaceOnUse" color-interpolation-filters="sRGB">
<feFlood flood-opacity="0" result="BackgroundImageFix"/>
<feColorMatrix in="SourceAlpha" type="matrix" values="0 0 0 0 0 0 0 0 0 0 0 0 0 0 0 0 0 0 127 0" result="hardAlpha"/>
<feOffset dy="0.310078"/>
<feComposite in2="hardAlpha" operator="out"/>
<feColorMatrix type="matrix" values="0 0 0 0 0 0 0 0 0 0 0 0 0 0 0 0 0 0 0.25 0"/>
<feBlend mode="normal" in2="BackgroundImageFix" result="effect1_dropShadow_1_5519"/>
<feBlend mode="normal" in="SourceGraphic" in2="effect1_dropShadow_1_5519" result="shape"/>
</filter>
<filter id="filter1_di_1_5519" x="14.0232" y="70.7698" width="9.30298" height="9.61281" filterUnits="userSpaceOnUse" color-interpolation-filters="sRGB">
<feFlood flood-opacity="0" result="BackgroundImageFix"/>
<feColorMatrix in="SourceAlpha" type="matrix" values="0 0 0 0 0 0 0 0 0 0 0 0 0 0 0 0 0 0 127 0" result="hardAlpha"/>
<feOffset dy="0.310078"/>
<feComposite in2="hardAlpha" operator="out"/>
<feColorMatrix type="matrix" values="0 0 0 0 0.574219 0 0 0 0 0.8125 0 0 0 0 0.771817 0 0 0 1 0"/>
<feBlend mode="normal" in2="BackgroundImageFix" result="effect1_dropShadow_1_5519"/>
<feBlend mode="normal" in="SourceGraphic" in2="effect1_dropShadow_1_5519" result="shape"/>
<feColorMatrix in="SourceAlpha" type="matrix" values="0 0 0 0 0 0 0 0 0 0 0 0 0 0 0 0 0 0 127 0" result="hardAlpha"/>
<feOffset dy="0.310078"/>
<feComposite in2="hardAlpha" operator="arithmetic" k2="-1" k3="1"/>
<feColorMatrix type="matrix" values="0 0 0 0 0.0221893 0 0 0 0 0.576923 0 0 0 0 0.484468 0 0 0 1 0"/>
<feBlend mode="normal" in2="shape" result="effect2_innerShadow_1_5519"/>
</filter>
<linearGradient id="paint0_linear_1_5519" x1="21.7377" y1="16.642" x2="58.4881" y2="124.794" gradientUnits="userSpaceOnUse">
<stop stop-color="#AACFFF"/>
<stop offset="1" stop-color="#AACFFF"/>
</linearGradient>
<linearGradient id="paint1_linear_1_5519" x1="32.0633" y1="20.4997" x2="79.8318" y2="88.4638" gradientUnits="userSpaceOnUse">
<stop stop-color="#DEECFF"/>
<stop offset="1" stop-color="#1475F4"/>
</linearGradient>
</defs>
</svg>
