<svg width="100" height="100" viewBox="0 0 100 100" fill="none" xmlns="http://www.w3.org/2000/svg">
<rect width="100" height="100" fill="white"/>
<path d="M16.2017 90.2107V55.4921C16.2017 54.5105 16.6665 53.5868 17.4548 53.0019L52.7239 26.8345C53.8587 25.9926 55.4192 26.0243 56.5189 26.9117L88.8467 53.0008C89.5761 53.5895 90.0001 54.4765 90.0001 55.4138V90.2107C90.0001 91.9233 88.6118 93.3115 86.8993 93.3115H19.3024C17.5899 93.3115 16.2017 91.9233 16.2017 90.2107Z" fill="url(#paint0_linear_1_5645)" stroke="white" stroke-width="0.620155"/>
<path d="M74.6325 25.3186L55.3245 12.7799C55.0682 12.6137 54.7817 12.4995 54.4813 12.4441C54.1809 12.3886 53.8725 12.3929 53.5737 12.4566L26.2766 18.2588C25.07 18.5153 24.0147 19.2406 23.3428 20.2751C22.671 21.3097 22.4376 22.5687 22.6941 23.7754L33.3314 73.8201C33.5879 75.0267 34.3132 76.082 35.3477 76.7539C36.3823 77.4257 37.6414 77.6591 38.848 77.4026L79.7937 68.6993C81.0003 68.4429 82.0556 67.7176 82.7275 66.683C83.3993 65.6485 83.6327 64.3894 83.3762 63.1828L75.6399 26.7866C75.5767 26.4877 75.4551 26.2043 75.2823 25.9524C75.1094 25.7005 74.8886 25.4851 74.6325 25.3186Z" fill="url(#paint1_linear_1_5645)" stroke="white" stroke-width="0.620155"/>
<path d="M53.1857 72.7219L18.0038 54.8472C17.1787 54.428 16.2017 55.0275 16.2017 55.953V90.2107C16.2017 91.9232 17.5899 93.3115 19.3024 93.3115H86.8993C88.6118 93.3115 90.0001 91.9232 90.0001 90.2107V56.0342C90.0001 55.0897 88.9865 54.4918 88.1599 54.9486L56.09 72.6714C55.1902 73.1687 54.1023 73.1876 53.1857 72.7219Z" fill="#F0F6FD"/>
<path d="M83.803 22.3039C83.8047 22.5221 83.7384 22.7353 83.6133 22.9141C83.4882 23.0928 83.3105 23.2281 83.1049 23.3012L78.887 24.835L77.3538 29.0522C77.2783 29.2558 77.1422 29.4313 76.9639 29.5553C76.7857 29.6793 76.5737 29.7458 76.3565 29.7458C76.1394 29.7458 75.9274 29.6793 75.7492 29.5553C75.5709 29.4313 75.4348 29.2558 75.3592 29.0522L73.8254 24.8304L69.6082 23.3012C69.4046 23.2256 69.229 23.0896 69.105 22.9113C68.981 22.733 68.9146 22.5211 68.9146 22.3039C68.9146 22.0868 68.981 21.8748 69.105 21.6965C69.229 21.5183 69.4046 21.3822 69.6082 21.3066L73.8301 19.7728L75.3592 15.5557C75.4348 15.3521 75.5709 15.1765 75.7492 15.0525C75.9274 14.9285 76.1394 14.8621 76.3565 14.8621C76.5737 14.8621 76.7857 14.9285 76.9639 15.0525C77.1422 15.1765 77.2783 15.3521 77.3538 15.5557L78.8877 19.7775L83.1049 21.3066C83.3105 21.3797 83.4882 21.515 83.6133 21.6938C83.7384 21.8725 83.8047 22.0858 83.803 22.3039Z" fill="#1D4374" stroke="#F5F5F5" stroke-width="0.620155"/>
<path d="M19.9255 73.7767C19.9266 73.9221 19.8824 74.0643 19.799 74.1834C19.7156 74.3026 19.5971 74.3928 19.4601 74.4415L16.6482 75.4641L15.6261 78.2755C15.5757 78.4112 15.485 78.5283 15.3662 78.6109C15.2473 78.6936 15.106 78.7379 14.9612 78.7379C14.8165 78.7379 14.6752 78.6936 14.5563 78.6109C14.4375 78.5283 14.3468 78.4112 14.2964 78.2755L13.2738 75.461L10.4624 74.4415C10.3267 74.3911 10.2096 74.3004 10.127 74.1816C10.0443 74.0627 10 73.9214 10 73.7767C10 73.6319 10.0443 73.4906 10.127 73.3718C10.2096 73.2529 10.3267 73.1622 10.4624 73.1118L13.2769 72.0893L14.2964 69.2778C14.3468 69.1421 14.4375 69.0251 14.5563 68.9424C14.6752 68.8597 14.8165 68.8154 14.9612 68.8154C15.106 68.8154 15.2473 68.8597 15.3662 68.9424C15.485 69.0251 15.5757 69.1421 15.6261 69.2778L16.6486 72.0924L19.4601 73.1118C19.5971 73.1605 19.7156 73.2507 19.799 73.3699C19.8824 73.4891 19.9266 73.6312 19.9255 73.7767Z" fill="#DCEAFD" stroke="white" stroke-width="0.620155"/>
<g filter="url(#filter0_d_1_5645)">
<path d="M77.0947 79.7429C77.203 79.7429 77.2761 79.8176 77.3142 79.9668C77.3142 80.0166 77.2674 80.1513 77.1737 80.3708C77.1181 80.4703 77.0756 80.5889 77.0464 80.7264H77.0639C77.0229 80.8406 76.9966 81.2197 76.9849 81.8636C76.9937 81.9134 76.9981 81.9661 76.9981 82.0217L76.9849 82.1447C76.9849 82.1564 76.9981 82.2032 77.0244 82.2852C77.001 82.2852 76.9834 82.4037 76.9717 82.6408H77.0068C76.9834 82.6876 76.9717 82.7125 76.9717 82.7155L76.9849 82.856C76.9673 82.9291 76.9585 82.976 76.9585 82.9965H76.9761L76.8927 83.5848L76.8795 83.5804C76.9059 83.5658 76.9454 83.5585 76.9981 83.5585C76.9981 83.5819 77.0083 83.5951 77.0288 83.598C77.0698 83.5746 77.0903 83.5599 77.0903 83.5541L77.0244 83.5673C77.0244 83.4999 77.0654 83.4502 77.1473 83.418C77.1473 83.4092 77.1766 83.3828 77.2352 83.3389H77.2791C77.3113 83.3389 77.3274 83.336 77.3274 83.3302C77.3157 83.336 77.3025 83.3389 77.2879 83.3389L77.2791 83.2862L77.503 83.1589H77.525C77.5513 83.1589 77.5689 83.1618 77.5776 83.1677L77.6523 83.1326H77.6918V83.1414C77.6918 83.1472 77.6742 83.1501 77.6391 83.1501V83.0491C77.6772 83.0491 77.7035 83.0535 77.7181 83.0623L77.7884 83.0448C77.8089 83.0594 77.8089 83.0667 77.7884 83.0667C77.7884 83.0374 77.7855 83.0228 77.7796 83.0228L77.7884 83.0404V82.9569C77.8586 82.9569 77.9216 82.9335 77.9772 82.8867C78.0035 82.8867 78.0621 82.8457 78.1528 82.7637C78.188 82.7637 78.2582 82.7359 78.3636 82.6803H78.4075C78.4251 82.6891 78.4294 82.6935 78.4207 82.6935C78.4909 82.6028 78.5626 82.5574 78.6358 82.5574C78.6504 82.5223 78.6724 82.5047 78.7017 82.5047L78.7324 82.5091C78.7324 82.5091 78.7587 82.4944 78.8114 82.4652H78.8422C78.8802 82.471 78.8993 82.5003 78.8993 82.553C78.8378 82.5706 78.7851 82.6159 78.7412 82.6891C78.4982 82.8355 78.2743 82.9847 78.0694 83.137C78.0489 83.137 77.9962 83.1662 77.9113 83.2248L77.6259 83.3916C77.4064 83.5643 77.1547 83.7458 76.8707 83.9361C76.8268 83.9653 76.8049 83.9844 76.8049 83.9932C76.8166 83.9932 76.8224 84.021 76.8224 84.0766C76.799 84.0766 76.7844 84.0824 76.7785 84.0941V84.1117C76.7785 84.1263 76.7844 84.1424 76.7961 84.16C76.6878 84.6049 76.5619 85.0235 76.4185 85.4158C76.398 85.445 76.3395 85.5885 76.2429 85.846C76.0262 86.2822 75.8872 86.5471 75.8257 86.6408C75.7877 86.6613 75.7687 86.6964 75.7687 86.7461C75.6194 86.9891 75.5081 87.1516 75.435 87.2335C75.3647 87.3916 75.1437 87.6331 74.772 87.958C74.772 87.9756 74.731 88.0048 74.649 88.0458C74.5993 88.1161 74.4163 88.2244 74.1002 88.3707H74.0431L74.0607 88.3795C74.0607 88.3795 73.9099 88.3854 73.6084 88.3971C73.2894 88.3093 73.1298 88.1761 73.1298 87.9975C73.1474 87.9624 73.1562 87.9448 73.1562 87.9448C73.1503 87.9448 73.1357 87.9229 73.1123 87.879V87.8087C73.1415 87.8087 73.1562 87.8116 73.1562 87.8175V87.8219H73.1298V87.7604C73.1298 87.7282 73.1269 87.7121 73.121 87.7121C73.1269 87.7238 73.1298 87.7209 73.1298 87.7033C73.1679 87.5716 73.2089 87.4721 73.2528 87.4048V87.3038H73.3098L73.3362 87.3169L73.3274 87.3389L73.3055 87.3038C73.3055 87.2394 73.3874 87.0886 73.5513 86.8515C73.5513 86.8076 73.604 86.7432 73.7094 86.6583C73.8119 86.4593 73.9011 86.3598 73.9772 86.3598V86.2939C74.0065 86.2676 74.1031 86.1519 74.267 85.947C74.2817 85.947 74.3007 85.9456 74.3241 85.9426L74.3109 85.89C74.3929 85.8285 74.4544 85.7612 74.4953 85.688C74.5217 85.688 74.5656 85.6426 74.6271 85.5519C74.6973 85.4875 74.7544 85.4553 74.7983 85.4553C74.7983 85.4641 74.7793 85.4684 74.7412 85.4684C74.7412 85.4187 74.7851 85.3879 74.8729 85.3762L74.93 85.3894H74.9037V85.4465C74.8978 85.4465 74.8847 85.4275 74.8642 85.3894C74.8642 85.3192 75.0149 85.1435 75.3164 84.8625L75.9355 84.3137L75.9575 84.3269C76.0248 84.242 76.0775 84.1995 76.1155 84.1995C76.136 84.1439 76.1667 84.1117 76.2077 84.1029H76.2736C76.2736 84.1293 76.2751 84.1424 76.278 84.1424C76.2868 84.1424 76.319 84.1161 76.3746 84.0634C76.4068 84.0634 76.4229 84.0473 76.4229 84.0151V83.9141C76.4492 83.9141 76.4946 83.8702 76.559 83.7824V83.6946C76.5853 83.6946 76.5985 83.7034 76.5985 83.7209C76.5809 83.6624 76.5722 83.6214 76.5722 83.598L76.5809 83.576C76.5751 83.5643 76.5722 83.5438 76.5722 83.5146C76.6073 83.497 76.6205 83.4882 76.6117 83.4882V83.5058L76.6249 83.4092C76.6161 83.4092 76.6117 83.3858 76.6117 83.3389L76.6424 83.3258C76.6336 83.2321 76.6292 83.1618 76.6292 83.115V83.0535L76.6556 82.9613C76.6527 82.9584 76.6395 82.9569 76.6161 82.9569C76.6424 82.875 76.66 82.8062 76.6688 82.7506C76.66 82.7359 76.6556 82.7081 76.6556 82.6672C76.6761 82.6672 76.6892 82.6364 76.6951 82.5749C76.6775 82.5749 76.6688 82.553 76.6688 82.5091L76.6819 82.4432C76.679 82.4315 76.6629 82.4257 76.6336 82.4257C76.657 82.3788 76.6688 82.3554 76.6688 82.3554L76.6556 82.3291C76.6556 82.2647 76.6775 82.2325 76.7214 82.2325V82.272C76.6863 82.272 76.6688 82.2076 76.6688 82.0788C76.6892 82.0788 76.701 82.0759 76.7039 82.07C76.6922 82.0407 76.6761 81.9661 76.6556 81.8461C76.6556 81.8139 76.6717 81.7627 76.7039 81.6924C76.6805 81.6514 76.6688 81.6148 76.6688 81.5826C76.6688 81.5417 76.6731 81.5051 76.6819 81.4729L76.6688 81.3894L76.6775 81.3016C76.6629 81.3016 76.6556 81.2885 76.6556 81.2621H76.6951C76.6453 81.3148 76.4975 81.5446 76.2516 81.9515C76.1667 82.0012 76.1243 82.0393 76.1243 82.0656L76.1463 82.1051C75.8945 82.4037 75.6677 82.695 75.4657 82.9789C75.4481 82.9847 75.3193 83.1282 75.0793 83.4092C75.0647 83.4092 74.9461 83.5321 74.7237 83.778C74.7061 83.778 74.6446 83.8292 74.5392 83.9317C74.1558 84.2742 73.847 84.4454 73.6128 84.4454C73.402 84.4454 73.2645 84.3766 73.2001 84.239C73.124 84.1337 73.0859 84.0502 73.0859 83.9888V83.9668L73.1123 83.9229V83.9536C73.0859 83.9536 73.0727 83.9302 73.0727 83.8834L73.0815 83.8614C73.0669 83.8087 73.0596 83.7663 73.0596 83.7341L73.0815 83.7253L73.0727 83.6726C73.0786 83.6317 73.0845 83.6112 73.0903 83.6112L73.0727 83.5321C73.0962 83.4824 73.1137 83.4136 73.1254 83.3258C73.1166 83.3258 73.1123 83.3023 73.1123 83.2555L73.1518 83.2336C73.1459 83.1984 73.143 83.1677 73.143 83.1414C73.143 83.1092 73.1635 83.0623 73.2045 83.0008C73.1986 82.9921 73.1957 82.9716 73.1957 82.9394L73.2176 82.9306L73.2089 82.8999C73.2089 82.8677 73.2279 82.8194 73.2659 82.755L73.2484 82.6979C73.2894 82.6364 73.3347 82.5223 73.3845 82.3554C73.4108 82.3554 73.4416 82.2866 73.4767 82.149C73.506 82.149 73.5382 82.0671 73.5733 81.9032C73.5879 81.9032 73.6157 81.8388 73.6567 81.71C73.6743 81.71 73.6889 81.7012 73.7006 81.6836V81.688L73.6787 81.6397L73.8016 81.5563V81.6309H73.7577V81.6485C73.7401 81.628 73.7314 81.6046 73.7314 81.5782C73.7636 81.467 73.7987 81.4114 73.8367 81.4114C73.8455 81.429 73.8353 81.4377 73.806 81.4377C73.8499 81.3382 73.8836 81.2885 73.907 81.2885C73.907 81.2972 73.9011 81.2914 73.8894 81.2709C73.9333 81.145 74.008 81.0118 74.1133 80.8713C74.1133 80.8362 74.188 80.6899 74.3373 80.4323C74.4075 80.3298 74.4675 80.182 74.5173 79.9888C74.5378 79.9888 74.5583 79.9844 74.5788 79.9756C74.7163 80.0049 74.7851 80.0664 74.7851 80.16C74.7851 80.2069 74.6461 80.4776 74.368 80.9723C74.2421 81.1743 74.0738 81.5285 73.8631 82.0349C73.6465 82.4593 73.4884 82.9804 73.3889 83.598C73.3889 83.598 73.3933 83.6082 73.402 83.6287L73.3889 83.7209C73.3889 83.7034 73.4006 83.6946 73.424 83.6946C73.4006 83.7414 73.3889 83.7663 73.3889 83.7692C73.4035 84.018 73.4562 84.1424 73.5469 84.1424H73.6567C73.7855 84.1424 74.0241 83.9946 74.3724 83.699C74.3724 83.6873 74.4368 83.6317 74.5656 83.5321C74.5714 83.4999 74.611 83.4619 74.6841 83.418C74.6841 83.3946 74.8246 83.2394 75.1057 82.9525C75.2491 82.7652 75.3808 82.6115 75.5008 82.4915C75.5769 82.3598 75.7291 82.1622 75.9575 81.8988C75.9575 81.8695 76.0277 81.7627 76.1682 81.5782C76.2238 81.4641 76.3087 81.3646 76.4229 81.2797C76.4229 81.1772 76.4697 81.0806 76.5634 80.9899C76.6044 81.0162 76.6205 81.0294 76.6117 81.0294V81.025V81.0558C76.5707 81.0558 76.5429 81.0279 76.5283 80.9723C76.6863 80.7791 76.7654 80.5801 76.7654 80.3752C76.8093 80.1996 76.8459 80.0283 76.8751 79.8615C76.9161 79.8 76.9893 79.7605 77.0947 79.7429ZM76.098 81.8768V81.8197H76.0541V81.8768H76.098ZM75.975 82.0568V82.0393H75.9531C75.9472 82.0393 75.9443 82.0422 75.9443 82.0481C75.9443 82.0539 75.9545 82.0568 75.975 82.0568ZM75.7818 82.2676V82.2588H75.7599C75.7833 82.2413 75.795 82.2325 75.795 82.2325C75.795 82.2588 75.7965 82.272 75.7994 82.272H75.7774C75.7804 82.272 75.7818 82.2705 75.7818 82.2676ZM75.7291 82.3422H75.6984V82.3818H75.7247C75.7277 82.3818 75.7291 82.3686 75.7291 82.3422ZM75.6589 82.4652V82.4388C75.6589 82.4359 75.656 82.4344 75.6501 82.4344H75.6282V82.4564C75.6282 82.4623 75.6311 82.4652 75.6369 82.4652H75.6589ZM75.5228 82.6408H75.492V82.6715H75.5184C75.5213 82.6715 75.5228 82.6613 75.5228 82.6408ZM77.4767 83.3389V83.295H77.4327V83.3389H77.4767ZM77.3142 83.4267V83.4048H77.3054C77.2996 83.4048 77.2966 83.415 77.2966 83.4355H77.301C77.3098 83.4355 77.3142 83.4326 77.3142 83.4267ZM76.436 83.9712V84.0766C76.3951 84.0766 76.3643 84.1 76.3438 84.1468C76.3321 84.1468 76.3263 84.1585 76.3263 84.182C76.2794 84.1585 76.2429 84.1468 76.2165 84.1468V84.0985C76.2165 84.0517 76.2897 84.0093 76.436 83.9712ZM76.5766 84.2127V84.1732H76.5195V84.2127H76.5766ZM73.4152 87.7736C73.4299 87.996 73.4811 88.1073 73.5689 88.1073C73.5689 88.1307 73.6479 88.1497 73.806 88.1644C73.9055 88.1644 74.0914 88.0912 74.3636 87.9448L74.3987 87.9492C74.3987 87.9082 74.4236 87.8877 74.4734 87.8877C74.4763 87.8877 74.491 87.8643 74.5173 87.8175C74.5671 87.7941 74.6315 87.7385 74.7105 87.6506C74.7398 87.6653 74.7471 87.6726 74.7324 87.6726L74.7193 87.6023C74.7632 87.6023 74.8305 87.5584 74.9212 87.4706V87.5497H74.9037V87.5628L74.8686 87.5145C74.9095 87.4531 74.9769 87.3989 75.0705 87.3521L75.11 87.3082V87.3301H75.0837V87.2335C75.1071 87.2335 75.1657 87.156 75.2593 87.0008H75.3164L75.3032 86.9964V87.0491C75.2915 87.0345 75.2857 87.0081 75.2857 86.9701L75.3823 86.8559L75.4086 86.8691C75.4086 86.8749 75.4042 86.8779 75.3954 86.8779L75.4086 86.8954V86.7725C75.4437 86.7461 75.4803 86.6905 75.5184 86.6056C75.533 86.6056 75.5359 86.6144 75.5272 86.632H75.5096C75.6003 86.4593 75.6765 86.3305 75.7379 86.2456C75.7379 86.1871 75.7716 86.1241 75.8389 86.0568L75.8345 86.048C75.8345 85.9953 75.9121 85.8299 76.0672 85.5519H76.1243L76.098 85.6089C76.0599 85.6089 76.0409 85.5855 76.0409 85.5387C76.1492 85.287 76.2209 85.0908 76.256 84.9503C76.3614 84.5669 76.4302 84.3473 76.4624 84.2917C76.4624 84.3122 76.4492 84.3225 76.4229 84.3225C76.458 84.2639 76.4756 84.2332 76.4756 84.2303H76.4843C76.0306 84.5903 75.4291 85.1508 74.6798 85.9119C73.8894 86.8164 73.4811 87.4033 73.4547 87.6726C73.443 87.6726 73.4299 87.7063 73.4152 87.7736ZM75.11 85.227V85.183H75.0925C75.0866 85.183 75.0837 85.186 75.0837 85.1918V85.2357C75.0954 85.2299 75.1042 85.227 75.11 85.227ZM74.1265 86.3202V86.2895H74.1002V86.3202H74.1265ZM73.8675 86.632V86.5793H73.8236V86.632H73.8675ZM74.0607 88.3136V88.2741H74.0168V88.3136H74.0607Z" fill="#1475F4"/>
<path d="M79.1934 82.4344L79.2505 82.4213C79.6047 82.392 79.7994 82.433 79.8345 82.5442C79.852 82.5384 79.9033 82.6247 79.9882 82.8033C80.0057 82.8589 79.9999 82.976 79.9706 83.1545L79.9662 83.1414H79.9618C80.0321 83.1267 80.2882 82.9496 80.7302 82.6101C80.7858 82.5749 80.8326 82.553 80.8707 82.5442C80.9146 82.6847 80.6804 82.9613 80.1682 83.3741C80.0218 83.4677 79.8974 83.5263 79.795 83.5497C79.5813 83.7692 79.4174 83.917 79.3032 83.9932C79.271 84.0019 79.2329 84.0166 79.189 84.0371C78.9344 84.0985 78.7163 84.021 78.5348 83.8044C78.4968 83.74 78.4602 83.6682 78.4251 83.5892C78.308 83.2204 78.3899 82.9262 78.6709 82.7067C78.7587 82.5984 78.9007 82.5208 79.0968 82.474C79.0939 82.4652 79.1261 82.452 79.1934 82.4344ZM79.1759 83.0184C79.2725 83.235 79.4013 83.3228 79.5623 83.2819L79.6062 83.2731C79.6969 83.1501 79.7393 83.0301 79.7335 82.913C79.6545 82.714 79.5608 82.6276 79.4525 82.654C79.4466 82.6364 79.4291 82.632 79.3998 82.6408C79.1861 82.6935 79.1115 82.8194 79.1759 83.0184ZM78.7061 83.4311L78.7192 83.4707C78.7748 83.6521 78.8392 83.7502 78.9124 83.7648C78.9651 83.7795 79.031 83.7765 79.11 83.7561C79.271 83.6595 79.3574 83.5936 79.3691 83.5585V83.5629C79.0939 83.437 78.9256 83.2804 78.8641 83.0931C78.8553 83.096 78.8466 83.0813 78.8378 83.0491C78.8349 82.9847 78.829 82.935 78.8202 82.8999H78.8158C78.687 83.0813 78.6504 83.2584 78.7061 83.4311Z" fill="#1475F4"/>
<path d="M80.9453 82.5091C80.9951 82.5091 81.0536 82.5325 81.121 82.5793C81.121 82.6203 81.0156 82.8077 80.8048 83.1414C80.7551 83.2409 80.7199 83.4048 80.6995 83.6331C80.7229 83.6858 80.7463 83.7151 80.7697 83.7209C80.8868 83.7209 81.121 83.5746 81.4722 83.2819C81.6537 83.1033 81.8645 82.8691 82.1045 82.5793C82.1865 82.5559 82.2567 82.5442 82.3152 82.5442H82.3679C82.3855 82.5442 82.4089 82.5735 82.4382 82.632C82.4382 82.6554 82.3679 82.7491 82.2274 82.913C82.1806 82.9804 82.1221 83.1209 82.0518 83.3345V83.4926C82.0518 83.5072 82.0811 83.5365 82.1396 83.5804C82.3123 83.5804 82.6607 83.3111 83.1846 82.7725C83.2783 82.6437 83.3661 82.5618 83.4481 82.5266H83.4656C83.489 82.5296 83.5007 82.5413 83.5007 82.5618C83.4129 82.834 83.1758 83.1794 82.7894 83.598C82.567 83.797 82.3504 83.8966 82.1396 83.8966H82.1221C81.9142 83.8966 81.7562 83.7502 81.6479 83.4575C81.279 83.8205 81.039 84.0019 80.9278 84.0019C80.8458 84.0254 80.7756 84.0371 80.717 84.0371C80.5238 84.0371 80.4009 83.9083 80.3482 83.6507V83.6331C80.3482 83.2848 80.5063 82.9218 80.8224 82.5442C80.8458 82.5442 80.8868 82.5325 80.9453 82.5091Z" fill="#1475F4"/>
</g>
<g filter="url(#filter1_di_1_5645)">
<path fill-rule="evenodd" clip-rule="evenodd" d="M32.1202 82.0318C31.8547 80.8003 30.8841 79.8343 29.6526 79.5687C29.0162 79.4314 28.3524 79.3582 27.6748 79.3582C26.9973 79.3582 26.3334 79.4314 25.6971 79.5687C24.4656 79.8343 23.4996 80.8049 23.234 82.0318C23.0967 82.6682 23.0234 83.332 23.0234 84.0096C23.0234 84.6871 23.0967 85.351 23.234 85.9873C23.4996 87.2188 24.4701 88.1848 25.6971 88.4504C26.3334 88.5877 26.9973 88.661 27.6748 88.661C28.3524 88.661 29.0162 88.5877 29.6526 88.4504C30.8841 88.1848 31.8501 87.2143 32.1157 85.9873C32.253 85.351 32.3262 84.6871 32.3262 84.0141C32.3308 83.3274 32.2576 82.6682 32.1202 82.0318ZM26.6905 81.9723C26.6905 81.4366 27.13 80.9971 27.6657 80.9971C28.2013 80.9971 28.6408 81.4366 28.6408 81.9723V82.3889C28.6408 82.9245 28.2013 83.364 27.6657 83.364C27.13 83.364 26.6905 82.9245 26.6905 82.3889V81.9723ZM29.5794 86.262C29.0758 86.7244 28.4028 87.0037 27.6657 87.0037C26.9286 87.0037 26.2602 86.7244 25.752 86.262C24.9371 85.5203 25.4727 84.1606 26.5761 84.1606H28.7599C29.8586 84.1606 30.3943 85.5203 29.5794 86.262Z" fill="#1475F4"/>
</g>
<defs>
<filter id="filter0_d_1_5645" x="73.0596" y="79.7429" width="10.4414" height="8.96413" filterUnits="userSpaceOnUse" color-interpolation-filters="sRGB">
<feFlood flood-opacity="0" result="BackgroundImageFix"/>
<feColorMatrix in="SourceAlpha" type="matrix" values="0 0 0 0 0 0 0 0 0 0 0 0 0 0 0 0 0 0 127 0" result="hardAlpha"/>
<feOffset dy="0.310078"/>
<feComposite in2="hardAlpha" operator="out"/>
<feColorMatrix type="matrix" values="0 0 0 0 0 0 0 0 0 0 0 0 0 0 0 0 0 0 0.25 0"/>
<feBlend mode="normal" in2="BackgroundImageFix" result="effect1_dropShadow_1_5645"/>
<feBlend mode="normal" in="SourceGraphic" in2="effect1_dropShadow_1_5645" result="shape"/>
</filter>
<filter id="filter1_di_1_5645" x="23.0234" y="79.3582" width="9.30322" height="9.61281" filterUnits="userSpaceOnUse" color-interpolation-filters="sRGB">
<feFlood flood-opacity="0" result="BackgroundImageFix"/>
<feColorMatrix in="SourceAlpha" type="matrix" values="0 0 0 0 0 0 0 0 0 0 0 0 0 0 0 0 0 0 127 0" result="hardAlpha"/>
<feOffset dy="0.310078"/>
<feComposite in2="hardAlpha" operator="out"/>
<feColorMatrix type="matrix" values="0 0 0 0 0.574219 0 0 0 0 0.8125 0 0 0 0 0.771817 0 0 0 1 0"/>
<feBlend mode="normal" in2="BackgroundImageFix" result="effect1_dropShadow_1_5645"/>
<feBlend mode="normal" in="SourceGraphic" in2="effect1_dropShadow_1_5645" result="shape"/>
<feColorMatrix in="SourceAlpha" type="matrix" values="0 0 0 0 0 0 0 0 0 0 0 0 0 0 0 0 0 0 127 0" result="hardAlpha"/>
<feOffset dy="0.310078"/>
<feComposite in2="hardAlpha" operator="arithmetic" k2="-1" k3="1"/>
<feColorMatrix type="matrix" values="0 0 0 0 0.0221893 0 0 0 0 0.576923 0 0 0 0 0.484468 0 0 0 1 0"/>
<feBlend mode="normal" in2="shape" result="effect2_innerShadow_1_5645"/>
</filter>
<linearGradient id="paint0_linear_1_5645" x1="30.7377" y1="25.2304" x2="67.4881" y2="133.382" gradientUnits="userSpaceOnUse">
<stop stop-color="#AACFFF"/>
<stop offset="1" stop-color="#AACFFF"/>
</linearGradient>
<linearGradient id="paint1_linear_1_5645" x1="41.0633" y1="29.0881" x2="88.8318" y2="97.0522" gradientUnits="userSpaceOnUse">
<stop stop-color="#DEECFF"/>
<stop offset="1" stop-color="#1475F4"/>
</linearGradient>
</defs>
</svg>
